<svg height="320" width="320" shapeRendering="crispEdges" viewBox="0 0 29 29" xmlns="http://www.w3.org/2000/svg" style="width: 320px; height: 320px;"><path fill="#000" d="M0 0h7v1H0zM10 0h1v1H10zM14 0h1v1H14zM19 0h2v1H19zM22,0 h7v1H22zM0 1h1v1H0zM6 1h1v1H6zM8 1h3v1H8zM16 1h2v1H16zM20 1h1v1H20zM22 1h1v1H22zM28,1 h1v1H28zM0 2h1v1H0zM2 2h3v1H2zM6 2h1v1H6zM8 2h1v1H8zM14 2h2v1H14zM17 2h3v1H17zM22 2h1v1H22zM24 2h3v1H24zM28,2 h1v1H28zM0 3h1v1H0zM2 3h3v1H2zM6 3h1v1H6zM9 3h1v1H9zM12 3h2v1H12zM19 3h2v1H19zM22 3h1v1H22zM24 3h3v1H24zM28,3 h1v1H28zM0 4h1v1H0zM2 4h3v1H2zM6 4h1v1H6zM8 4h3v1H8zM12 4h1v1H12zM20 4h1v1H20zM22 4h1v1H22zM24 4h3v1H24zM28,4 h1v1H28zM0 5h1v1H0zM6 5h1v1H6zM8 5h1v1H8zM10 5h1v1H10zM12 5h1v1H12zM15 5h1v1H15zM18 5h3v1H18zM22 5h1v1H22zM28,5 h1v1H28zM0 6h7v1H0zM8 6h1v1H8zM10 6h1v1H10zM12 6h1v1H12zM14 6h1v1H14zM16 6h1v1H16zM18 6h1v1H18zM20 6h1v1H20zM22,6 h7v1H22zM8 7h1v1H8zM10 7h2v1H10zM13 7h1v1H13zM16 7h4v1H16zM0 8h2v1H0zM3 8h1v1H3zM6 8h2v1H6zM11 8h2v1H11zM14 8h1v1H14zM18 8h1v1H18zM20 8h1v1H20zM22 8h3v1H22zM26 8h2v1H26zM1 9h2v1H1zM8 9h2v1H8zM11 9h3v1H11zM18 9h1v1H18zM22 9h1v1H22zM25 9h1v1H25zM28,9 h1v1H28zM0 10h1v1H0zM5 10h3v1H5zM11 10h4v1H11zM16 10h1v1H16zM18 10h2v1H18zM21 10h1v1H21zM23 10h5v1H23zM0 11h1v1H0zM2 11h2v1H2zM5 11h1v1H5zM8 11h6v1H8zM15 11h1v1H15zM18 11h1v1H18zM24 11h1v1H24zM26 11h2v1H26zM0 12h1v1H0zM3 12h2v1H3zM6 12h2v1H6zM10 12h2v1H10zM14 12h1v1H14zM16 12h8v1H16zM25 12h1v1H25zM27,12 h2v1H27zM1 13h5v1H1zM8 13h1v1H8zM11 13h1v1H11zM13 13h2v1H13zM17 13h3v1H17zM1 14h4v1H1zM6 14h4v1H6zM11 14h1v1H11zM13 14h2v1H13zM16 14h3v1H16zM20 14h1v1H20zM22 14h2v1H22zM25,14 h4v1H25zM0 15h1v1H0zM2 15h2v1H2zM5 15h1v1H5zM9 15h3v1H9zM16 15h2v1H16zM19 15h4v1H19zM24 15h2v1H24zM27 15h1v1H27zM2 16h1v1H2zM6 16h2v1H6zM12 16h2v1H12zM16 16h1v1H16zM20 16h2v1H20zM27 16h1v1H27zM1 17h2v1H1zM4 17h1v1H4zM7 17h1v1H7zM9 17h2v1H9zM12 17h3v1H12zM16 17h1v1H16zM18 17h1v1H18zM21 17h3v1H21zM25 17h1v1H25zM28,17 h1v1H28zM0 18h1v1H0zM4 18h3v1H4zM8 18h2v1H8zM11 18h2v1H11zM14 18h1v1H14zM17 18h2v1H17zM21 18h1v1H21zM23 18h2v1H23zM27,18 h2v1H27zM7 19h4v1H7zM12 19h1v1H12zM14 19h2v1H14zM17 19h1v1H17zM19 19h6v1H19zM27,19 h2v1H27zM0 20h1v1H0zM2 20h2v1H2zM5 20h2v1H5zM8 20h3v1H8zM16 20h1v1H16zM19 20h6v1H19zM26 20h1v1H26zM8 21h1v1H8zM11 21h1v1H11zM14 21h1v1H14zM16 21h5v1H16zM24 21h1v1H24zM26,21 h3v1H26zM0 22h7v1H0zM8 22h2v1H8zM17 22h1v1H17zM20 22h1v1H20zM22 22h1v1H22zM24 22h1v1H24zM27 22h1v1H27zM0 23h1v1H0zM6 23h1v1H6zM9 23h1v1H9zM14 23h3v1H14zM18 23h1v1H18zM20 23h1v1H20zM24 23h3v1H24zM28,23 h1v1H28zM0 24h1v1H0zM2 24h3v1H2zM6 24h1v1H6zM9 24h1v1H9zM12 24h1v1H12zM16 24h2v1H16zM20 24h5v1H20zM28,24 h1v1H28zM0 25h1v1H0zM2 25h3v1H2zM6 25h1v1H6zM8 25h5v1H8zM17 25h1v1H17zM19 25h9v1H19zM0 26h1v1H0zM2 26h3v1H2zM6 26h1v1H6zM9 26h1v1H9zM12 26h1v1H12zM16 26h2v1H16zM24 26h3v1H24zM28,26 h1v1H28zM0 27h1v1H0zM6 27h1v1H6zM8 27h3v1H8zM12 27h3v1H12zM17 27h4v1H17zM22 27h2v1H22zM27 27h1v1H27zM0 28h7v1H0zM8 28h1v1H8zM10 28h2v1H10zM13 28h2v1H13zM17 28h1v1H17zM20 28h1v1H20zM22 28h3v1H22zM27 28h1v1H27z"></path></svg>